<?xml version="1.0" encoding="utf-8"?>
<!-- Generator: Adobe Illustrator 23.0.3, SVG Export Plug-In . SVG Version: 6.00 Build 0)  -->
<svg version="1.1" id="Capa_1" xmlns="http://www.w3.org/2000/svg" xmlns:xlink="http://www.w3.org/1999/xlink" x="0px" y="0px"
	 viewBox="0 0 500 500" style="enable-background:new 0 0 500 500;" xml:space="preserve">
<style type="text/css">
	.st0{fill:#FF3A33;enable-background:new    ;}
	.st1{fill:#1D646D;enable-background:new    ;}
	.st2{fill:#F8D500;enable-background:new    ;}
	.st3{fill:#5C4B4B;enable-background:new    ;}
	.st4{fill:#F39009;enable-background:new    ;}
	.st5{fill:#68CDA9;enable-background:new    ;}
	.st6{fill:#FF3131;stroke:#FFFFFF;stroke-width:25;stroke-miterlimit:10;}
	.st7{enable-background:new    ;}
	.st8{fill:#FF3A33;stroke:#FF3A33;stroke-width:3;stroke-miterlimit:10;}
</style>
<g>
	<circle class="st0" cx="55.8" cy="205.5" r="29.2"/>
	<circle class="st1" cx="191.3" cy="59.9" r="29.2"/>
	<circle class="st2" cx="383.3" cy="102.3" r="29.2"/>
	<circle class="st3" cx="444" cy="291.5" r="29.2"/>
	<circle class="st4" cx="308.6" cy="439.9" r="29.2"/>
	<circle class="st5" cx="115.1" cy="396.5" r="29.2"/>
	<path class="st1" d="M170.1,137c0,0-35,12.2-32.4-22.1c7-23.3,35.8-27.8,35.8-27.8s30.2,13,45.1-11.5c0,0,71-3.8,79,15.1
		c0,0,3.1,3.6-16.3,5.5C281.2,96.2,241.9,90.2,170.1,137z"/>
	<path class="st2" d="M305.8,123c0,0-28-24.3,3.1-39.1c23.7-5.5,41.9,17.2,41.9,17.2s3.8,32.7,32.4,33.5c0,0,38.6,59.8,26.1,76.1
		c0,0-1.6,4.5-12.9-11.4C396.4,199.2,382.1,162,305.8,123z"/>
	<path class="st3" d="M385.2,236.1c0,0,6.4-36.6,35.1-17.6c16.9,17.4,6.9,44.8,6.9,44.8s-26,20.1-11.9,45c0,0-31.2,63.9-51.6,61.6
		c0,0-4.7,1,3.1-16.9C366.8,353,391.2,321.5,385.2,236.1z"/>
	<path class="st4" d="M330.1,359.8c0,0,35-12.4,32.5,22c-6.9,23.3-35.7,28-35.7,28s-30.3-12.9-45.1,11.7c0,0-71,4.1-79-14.9
		c0,0-3.1-3.6,16.3-5.6C219.1,400.9,258.5,406.8,330.1,359.8z"/>
	<path class="st5" d="M194.4,372.8c0,0,28.8,23.5-1.9,39.2c-23.5,6.3-42.4-15.9-42.4-15.9s-4.8-32.6-33.4-32.4
		c0,0-40.4-58.5-28.4-75.2c0,0,1.4-4.5,13.2,11C101.5,299.5,117,336.2,194.4,372.8z"/>
	<path class="st0" d="M113.4,260.9c0,0-7.3,36.4-35.5,16.7c-16.5-17.8-5.8-44.9-5.8-44.9s26.5-19.4,13-44.7c0,0,32.8-63.1,53.2-60.3
		c0,0,4.7-0.9-3.5,16.9C134.8,144.5,109.6,175.3,113.4,260.9z"/>
</g>
<g>
	<g transform="translate(68.662703, 245.468851)">
		<g>
			<path d="M28-86.3c14.6,0,15.6,12.1,15.6,45.5v75.4c0,33.4-1,45.5-15.6,45.5v1.7h121.6v-28h-1.7c0,24.4-51.8,26.3-67.9,26.3H58.2
				v-90.7c2.7-3.6,7-6.1,11.9-5.9c12.1,0.3,20.7,14.9,41.4,14.9c13.4,0,21.7-8.7,21.7-18.7h-1.7c0,5.9-6.1,9.7-12.6,9.7
				c-14.9,0-24.3-10.5-41.1-10.5c-7.8,0-14.6,2.9-19.7,7.8v-73h28.2c39.1,0,61.5,9.2,61.5,20.5v0.7h1.7V-88H28V-86.3z"/>
		</g>
	</g>
</g>
<g>
	<g transform="translate(204.795956, 245.468851)">
		<g>
			<path d="M73.4,52.1c0,17.7,11.2,33.1,30.9,33.1c33.8,0,53.7-29.9,53.7-71.1c0-8.2-0.3-14.9-1-20.4L178,49.2
				c6.5,17.1,7.3,30.9-16.6,30.9v1.7H217v-1.7c-10.4,0-15.8-9.3-23.3-28L139.4-91.4h-1.7c-10.7,28.2-17,45-27.3,72.3
				c-1.7,4.4-0.8,9,3.9,9c9.7,0,14.8-17.8,22.9-17.8c2.2,0,4.1,1.4,4.1,4.6C141.3-5.6,73.4,10.3,73.4,52.1z M87.8,48.9
				c0-41.9,55.4-49.1,55.4-71.8c0-4.4-2.4-6.6-5.6-6.6c-9,0-15.3,17.8-23.1,17.8c-2.7,0-4.1-2-1.9-8l19.5-52l20.5,54.2
				c3.1,10,3.6,19.4,3.6,31.9c0,27.8-13.4,62.7-41.8,62.7C97.8,77.1,87.8,64.8,87.8,48.9z"/>
		</g>
	</g>
</g>
<g>
	<g transform="translate(196.59678, 192.694924)">
	</g>
</g>
<g>
	<g>
		<g transform="translate(27.288949, 192.694924)">
			<g>
				<path class="st6" d="M11.2,38.4c-0.1,0-0.3,0-0.5-0.1c-0.2-0.1-0.4-0.1-0.6-0.2c-0.2-0.1-0.4-0.2-0.6-0.2
					c-0.2-0.1-0.3-0.1-0.4-0.2c0,0,0-0.1,0-0.1c0,0,0-0.1,0-0.2c0-0.3,0.1-0.6,0.4-0.8c0.2-0.2,0.5-0.4,0.8-0.5
					c0.3-0.1,0.6-0.2,0.9-0.3c0.3-0.1,0.5-0.1,0.7-0.2h0.7c0.5,0,1.2,0.1,2,0.2c0.8,0.1,1.7,0.2,2.6,0.3c0.9,0.1,1.8,0.2,2.7,0.3
					c0.9,0.1,1.8,0.2,2.5,0.3c0.8,0.1,1.4,0.2,1.9,0.2c0.5,0.1,0.8,0.1,0.9,0.1c0.2,0,0.4,0.1,0.7,0.1c0.3,0.1,0.6,0.1,0.8,0.3
					c0.3,0.1,0.6,0.3,0.8,0.4c0.2,0.2,0.4,0.4,0.5,0.6c-0.2,0.3-0.3,0.6-0.5,0.8c-0.1,0.2-0.3,0.3-0.4,0.4c-0.1,0.1-0.3,0.1-0.5,0.1
					c-0.2,0-0.4,0-0.6,0c-0.9,0-1.8,0-2.8-0.1c-0.9-0.1-1.8-0.1-2.8-0.2c-0.9-0.1-1.8-0.1-2.8-0.2c-0.9-0.1-1.8-0.1-2.8-0.1
					c0,0.4-0.1,1-0.1,1.8c-0.1,0.8-0.2,1.6-0.2,2.5c-0.1,0.9,0,1.7,0.1,2.6c0.1,0.8,0.3,1.6,0.8,2.2c0.7-0.5,1.5-0.7,2.4-0.7
					c0.8,0,1.7,0,2.5,0c0.4,0,0.8,0,1.4,0c0.6,0,1.1,0.1,1.6,0.2c0.5,0.1,1,0.3,1.3,0.6c0.4,0.3,0.6,0.8,0.6,1.4
					c0,0.4-0.1,0.8-0.3,1c-0.2,0.2-0.6,0.3-1.2,0.3c-0.1,0-0.2,0-0.4-0.1c-0.2-0.1-0.4-0.1-0.6-0.2c-0.2-0.1-0.4-0.2-0.6-0.2
					c-0.2-0.1-0.3-0.1-0.4-0.1c0,0-0.1,0-0.3,0c-0.1,0-0.3,0-0.5,0c-0.2,0-0.4,0-0.6,0c-0.2,0-0.3,0-0.4,0c-0.5,0-1,0-1.5,0.1
					c-0.5,0.1-0.9,0.2-1.2,0.4c-0.3,0.2-0.6,0.5-0.8,0.9c-0.2,0.4-0.3,0.8-0.3,1.4c0,0.2,0,0.5,0.1,1c0,0.5,0.1,1,0.2,1.6
					c0.1,0.6,0.2,1.2,0.3,1.8c0.1,0.6,0.3,1.2,0.5,1.7c0.2,0.5,0.5,0.9,0.7,1.3c0.3,0.3,0.6,0.5,1,0.5c0,0,0.1,0,0.3,0
					c0.2,0,0.3,0,0.4,0c0.7-0.5,1.5-1,2.2-1.6c0.8-0.6,1.5-1.1,2.3-1.6c0.8-0.5,1.6-0.9,2.5-1.3c0.9-0.4,1.8-0.5,2.7-0.5v1.6
					c0,0.1-0.2,0.3-0.6,0.7c-0.4,0.4-1,0.8-1.6,1.4c-0.7,0.5-1.4,1.1-2.3,1.6c-0.8,0.6-1.7,1.1-2.5,1.6c-0.8,0.5-1.7,0.9-2.4,1.2
					c-0.8,0.3-1.4,0.5-1.9,0.5c-0.7,0-1.4-0.3-2-1c-0.6-0.7-1.1-1.5-1.5-2.6c-0.5-1.1-0.8-2.4-1.1-3.8c-0.3-1.4-0.6-2.9-0.8-4.4
					c-0.2-1.5-0.4-3-0.6-4.5c-0.1-1.5-0.3-2.9-0.3-4.2c-0.1-1.3-0.1-2.4-0.2-3.4C11.3,39.4,11.2,38.8,11.2,38.4z"/>
			</g>
		</g>
	</g>
	<g>
		<g transform="translate(51.472296, 192.694924)">
			<g>
				<path class="st6" d="M17.2,40.7c1,0,1.8,0.3,2.4,0.9c0.6,0.6,1.2,1.3,1.6,2.2c0.4,0.9,0.8,1.9,1.1,3.1c0.3,1.2,0.6,2.3,0.8,3.6
					c0.3,1.2,0.5,2.4,0.8,3.6c0.3,1.2,0.6,2.2,1,3.1c0.4,0.9,0.9,1.6,1.5,2.2c0.6,0.6,1.4,0.8,2.3,0.8c0,0,0.1,0,0.2,0
					c0,0,0.1-0.1,0.2-0.1c0.1,0,0.2-0.1,0.4-0.3c0.2-0.2,0.3-0.3,0.3-0.4c0-0.1,0.1-0.5,0.3-1.1c0.1-0.6,0.3-1.4,0.5-2.3
					c0.2-0.9,0.5-2,0.8-3.1c0.3-1.2,0.6-2.4,0.9-3.6c0.3-1.2,0.6-2.4,1-3.5c0.3-1.1,0.6-2.2,0.9-3c0.3-0.9,0.6-1.6,0.9-2.1
					c0.3-0.5,0.5-0.8,0.7-0.8c0.3,0,0.4,0.1,0.6,0.2c0.2,0.1,0.3,0.3,0.3,0.4c0.1,0.2,0.1,0.4,0.1,0.6c0,0.2,0,0.4,0,0.6
					c0,0.3-0.1,0.9-0.2,1.8c-0.1,0.8-0.3,1.8-0.5,2.9c-0.2,1.1-0.4,2.3-0.7,3.7c-0.3,1.3-0.6,2.7-1,4c-0.3,1.3-0.7,2.6-1.1,3.9
					s-0.8,2.4-1.3,3.3c-0.4,1-0.8,1.7-1.3,2.3c-0.4,0.6-0.9,0.9-1.3,0.9c-0.6,0-1.1-0.2-1.7-0.5c-0.5-0.3-1.1-0.8-1.5-1.3
					c-0.5-0.5-0.9-1.1-1.4-1.8c-0.4-0.7-0.8-1.3-1.1-2c-0.3-0.7-0.6-1.3-0.9-1.9c-0.3-0.6-0.5-1.1-0.7-1.6c-0.2-0.6-0.5-1.3-0.9-2.1
					c-0.3-0.8-0.7-1.7-1-2.6c-0.4-0.9-0.7-1.8-1.1-2.8c-0.3-0.9-0.7-1.8-1-2.5c-0.3-0.7-0.5-1.3-0.7-1.8c-0.2-0.5-0.3-0.7-0.3-0.8
					V40.7z"/>
			</g>
		</g>
	</g>
	<g>
		<g transform="translate(75.143028, 192.694924)">
			<g>
				<path class="st6" d="M27.2,38.4c-0.1,0-0.3,0-0.5-0.1c-0.2-0.1-0.4-0.1-0.6-0.2c-0.2-0.1-0.4-0.2-0.6-0.2
					c-0.2-0.1-0.3-0.1-0.4-0.2c0,0,0-0.1,0-0.1c0,0,0-0.1,0-0.2c0-0.3,0.1-0.6,0.4-0.8c0.2-0.2,0.5-0.4,0.8-0.5
					c0.3-0.1,0.6-0.2,0.9-0.3c0.3-0.1,0.5-0.1,0.7-0.2h0.7c0.5,0,1.2,0.1,2,0.2c0.8,0.1,1.7,0.2,2.6,0.3c0.9,0.1,1.8,0.2,2.7,0.3
					c0.9,0.1,1.8,0.2,2.5,0.3c0.8,0.1,1.4,0.2,1.9,0.2C40.7,37,41,37,41.1,37c0.2,0,0.4,0.1,0.7,0.1c0.3,0.1,0.6,0.1,0.8,0.3
					c0.3,0.1,0.6,0.3,0.8,0.4c0.2,0.2,0.4,0.4,0.5,0.6c-0.2,0.3-0.3,0.6-0.5,0.8c-0.1,0.2-0.3,0.3-0.4,0.4c-0.1,0.1-0.3,0.1-0.5,0.1
					s-0.4,0-0.6,0c-0.9,0-1.8,0-2.8-0.1c-0.9-0.1-1.8-0.1-2.8-0.2c-0.9-0.1-1.8-0.1-2.8-0.2c-0.9-0.1-1.8-0.1-2.8-0.1
					c0,0.4-0.1,1-0.1,1.8c-0.1,0.8-0.2,1.6-0.2,2.5c-0.1,0.9,0,1.7,0.1,2.6c0.1,0.8,0.3,1.6,0.8,2.2c0.8-0.5,1.5-0.7,2.4-0.7
					c0.8,0,1.7,0,2.5,0c0.4,0,0.8,0,1.4,0c0.6,0,1.1,0.1,1.6,0.2c0.5,0.1,1,0.3,1.3,0.6c0.4,0.3,0.6,0.8,0.6,1.4
					c0,0.4-0.1,0.8-0.3,1c-0.2,0.2-0.6,0.3-1.2,0.3c-0.1,0-0.2,0-0.4-0.1c-0.2-0.1-0.4-0.1-0.6-0.2c-0.2-0.1-0.4-0.2-0.6-0.2
					c-0.2-0.1-0.3-0.1-0.4-0.1c0,0-0.1,0-0.3,0c-0.1,0-0.3,0-0.5,0c-0.2,0-0.4,0-0.6,0c-0.2,0-0.3,0-0.4,0c-0.5,0-1,0-1.5,0.1
					c-0.5,0.1-0.9,0.2-1.2,0.4c-0.3,0.2-0.6,0.5-0.8,0.9C32.2,52,32,52.4,32,53c0,0.2,0,0.5,0.1,1c0,0.5,0.1,1,0.2,1.6
					c0.1,0.6,0.2,1.2,0.3,1.8c0.1,0.6,0.3,1.2,0.5,1.7c0.2,0.5,0.5,0.9,0.7,1.3c0.3,0.3,0.6,0.5,1,0.5c0,0,0.1,0,0.3,0
					c0.2,0,0.3,0,0.4,0c0.7-0.5,1.5-1,2.2-1.6c0.8-0.6,1.5-1.1,2.3-1.6c0.8-0.5,1.6-0.9,2.5-1.3c0.9-0.4,1.8-0.5,2.7-0.5v1.6
					c0,0.1-0.2,0.3-0.6,0.7c-0.4,0.4-1,0.8-1.6,1.4c-0.7,0.5-1.4,1.1-2.3,1.6c-0.8,0.6-1.7,1.1-2.5,1.6c-0.8,0.5-1.7,0.9-2.4,1.2
					c-0.8,0.3-1.4,0.5-1.9,0.5c-0.7,0-1.4-0.3-2-1c-0.6-0.7-1.1-1.5-1.5-2.6c-0.5-1.1-0.8-2.4-1.1-3.8c-0.3-1.4-0.6-2.9-0.8-4.4
					c-0.2-1.5-0.4-3-0.6-4.5c-0.1-1.5-0.3-2.9-0.3-4.2c-0.1-1.3-0.1-2.4-0.2-3.4C27.2,39.4,27.2,38.8,27.2,38.4z"/>
			</g>
		</g>
	</g>
	<g>
		<g transform="translate(99.326378, 192.694924)">
			<g>
				<path class="st6" d="M35.2,62.8c-0.1-0.3-0.2-0.8-0.4-1.5c-0.1-0.7-0.3-1.4-0.5-2.1c-0.2-0.8-0.3-1.6-0.5-2.5
					c-0.2-0.9-0.3-1.7-0.4-2.5c-0.1-0.8-0.2-1.6-0.3-2.3c-0.1-0.7-0.1-1.3-0.1-1.7c0-0.2,0-0.5,0.1-1c0-0.5,0.1-1,0.2-1.5
					c0.1-0.5,0.2-1,0.3-1.5c0.1-0.5,0.2-0.8,0.2-1c0.1,0,0.2,0,0.4,0c0.2,0,0.3,0,0.5,0c0.2,0,0.4,0,0.5-0.1c0.2,0,0.3,0,0.3,0
					c1,0,2,0.2,3,0.6c0.9,0.4,1.8,0.9,2.7,1.6c0.8,0.6,1.7,1.3,2.5,2.1c0.8,0.8,1.6,1.5,2.4,2.3c0.8,0.7,1.7,1.4,2.5,2
					c0.8,0.6,1.8,1.1,2.7,1.4c0-0.1,0-0.3,0-0.5c0-0.2,0-0.5,0-0.8c0-0.3,0-0.5,0-0.7c0-0.2,0-0.4,0-0.5c0-1.4-0.1-2.7-0.3-4
					c-0.2-1.3-0.4-2.6-0.6-3.9c-0.2-1.3-0.4-2.6-0.6-3.9c-0.2-1.3-0.3-2.7-0.3-4.1c0.2,0,0.3,0,0.6,0c0.2,0,0.5,0.1,0.7,0.1
					c0.2,0.1,0.4,0.1,0.6,0.3c0.2,0.1,0.3,0.3,0.4,0.5c0.1,1.6,0.3,3.1,0.6,4.7c0.3,1.6,0.6,3.1,0.9,4.7c0.3,1.6,0.6,3.1,0.9,4.7
					c0.3,1.6,0.4,3.1,0.4,4.7c0,0.3,0,0.6,0,0.9c0,0.3-0.1,0.6-0.1,0.9c-0.1,0.3-0.2,0.5-0.4,0.7c-0.2,0.2-0.4,0.3-0.8,0.3
					c-1.1,0-2.2-0.3-3.1-0.8c-1-0.5-1.9-1.1-2.8-1.9c-0.9-0.8-1.8-1.6-2.6-2.5c-0.9-0.9-1.7-1.8-2.6-2.5c-0.9-0.8-1.8-1.4-2.8-1.9
					c-1-0.5-2-0.8-3.1-0.8c0,1.2,0.1,2.4,0.3,3.5c0.2,1.1,0.4,2.2,0.6,3.3c0.2,1.1,0.4,2.2,0.6,3.3c0.2,1.1,0.3,2.2,0.3,3.3
					c0,0.4-0.1,0.7-0.4,0.9c-0.3,0.2-0.6,0.2-1,0.2c-0.3,0-0.5,0-0.8-0.1C35.5,63.5,35.4,63.2,35.2,62.8z"/>
			</g>
		</g>
	</g>
	<g>
		<g transform="translate(124.046747, 192.694924)">
			<g>
				<path class="st6" d="M54.6,44.7c-0.1-0.3-0.3-0.5-0.5-0.6c-0.3-0.1-0.5-0.2-0.8-0.2c-0.3,0-0.6,0-0.9,0.1C52.2,44,52,44,51.8,44
					c-0.4,0-1-0.1-1.9-0.1c-0.9-0.1-1.9-0.1-2.9-0.2c-1.1-0.1-2-0.2-3-0.2c-0.9-0.1-1.5-0.1-1.9-0.2c0,0,0-0.1,0-0.3
					c0-0.2,0-0.3,0-0.4c0-0.3,0-0.6,0.1-0.8c0.1-0.3,0.3-0.4,0.6-0.6c2,0,4,0,6,0c2-0.1,4-0.2,6-0.3c2-0.1,4-0.2,6-0.3
					c2-0.1,4-0.2,6-0.2c0,0.8-0.2,1.4-0.6,1.8c-0.4,0.4-0.9,0.6-1.4,0.8c-0.6,0.1-1.2,0.2-1.9,0.1c-0.7,0-1.4,0-2,0
					c-0.6,0-1.2,0.2-1.7,0.4c-0.5,0.2-0.8,0.6-1,1.1c0,0.1,0,0.4-0.1,0.8c0,0.4-0.1,0.8-0.1,1.2c0,0.4,0,0.8,0,1.1
					c0,0.4,0,0.6,0,0.8c0,1.2,0.2,2.5,0.5,3.7c0.3,1.2,0.7,2.4,1,3.6c0.4,1.2,0.7,2.4,1,3.5c0.3,1.2,0.5,2.4,0.5,3.6
					c0,0.9-0.5,1.4-1.6,1.4c-0.6,0-1.2-0.4-1.7-1.3c-0.5-0.9-0.9-2-1.3-3.3c-0.4-1.3-0.7-2.8-0.9-4.4c-0.2-1.6-0.4-3.1-0.6-4.5
					c-0.1-1.5-0.2-2.7-0.3-3.9C54.7,45.8,54.6,45,54.6,44.7z"/>
			</g>
		</g>
	</g>
	<g>
		<g transform="translate(151.891629, 192.694924)">
			<g>
				<path class="st6" d="M50.6,55.2c0-1.1,0.1-2.2,0.4-3.4c0.3-1.1,0.7-2.2,1.2-3.3c0.5-1,1.2-2,1.9-2.9c0.8-0.9,1.6-1.7,2.5-2.3
					c0.9-0.7,1.9-1.2,3-1.6c1.1-0.4,2.2-0.6,3.4-0.6c1.2,0,2.2,0.2,3.1,0.7c0.9,0.5,1.6,1.1,2.2,1.9c0.6,0.8,1,1.7,1.3,2.7
					c0.3,1,0.4,2,0.4,3.1c0,1.8-0.3,3.6-0.8,5.4c-0.5,1.8-1.3,3.3-2.4,4.8c-1.1,1.4-2.4,2.5-4,3.4c-1.6,0.8-3.4,1.3-5.4,1.3
					c-1.2,0-2.3-0.3-3.1-0.8c-0.9-0.6-1.6-1.3-2.2-2.1c-0.6-0.9-1-1.8-1.3-2.9C50.8,57.3,50.6,56.2,50.6,55.2z M53.4,55.9
					c0,0.6,0.1,1.2,0.3,1.9c0.2,0.7,0.5,1.3,0.8,1.8c0.3,0.5,0.8,1,1.3,1.4c0.5,0.4,1.1,0.5,1.8,0.5c1.5,0,2.8-0.3,4-1
					c1.2-0.7,2.2-1.5,3.1-2.6c0.9-1.1,1.5-2.2,2-3.5c0.5-1.3,0.7-2.6,0.7-3.9c0-0.8,0-1.5-0.1-2.3c0-0.8-0.2-1.5-0.4-2.1
					c-0.2-0.6-0.6-1.2-1.1-1.6c-0.5-0.4-1.3-0.6-2.2-0.6c-0.3,0-0.7,0-1.2,0c-0.5,0-1,0.1-1.5,0.2c-0.5,0.1-0.9,0.2-1.3,0.4
					C59.2,44.8,59,45,59,45.4c0,0,0,0.1,0.1,0.3c0.1,0.1,0.2,0.3,0.3,0.4c0.1,0.2,0.2,0.3,0.2,0.4c0.1,0.1,0.1,0.2,0.1,0.3
					c0,0-0.1,0.2-0.3,0.4c-0.2,0.2-0.3,0.3-0.4,0.3c-1.1,0.3-2,0.6-2.7,1.1c-0.7,0.4-1.3,1-1.7,1.6c-0.4,0.7-0.7,1.5-0.9,2.4
					C53.5,53.5,53.4,54.6,53.4,55.9z"/>
			</g>
		</g>
	</g>
	<g>
		<g transform="translate(175.562358, 192.694924)">
			<g>
				<path class="st6" d="M64.1,62.8c0.1-0.5,0.4-1,0.8-1.3c0.4-0.3,0.9-0.6,1.5-0.9c0.6-0.3,1.2-0.6,1.8-0.8
					c0.6-0.3,1.2-0.5,1.8-0.8c0.5-0.3,1-0.6,1.3-1c0.3-0.4,0.5-0.9,0.5-1.4c0-0.7-0.2-1.3-0.5-1.7c-0.3-0.5-0.8-0.8-1.4-1.2
					c-0.6-0.3-1.3-0.6-2-0.8c-0.8-0.2-1.5-0.4-2.3-0.7c-0.8-0.2-1.6-0.5-2.3-0.8c-0.8-0.3-1.4-0.6-2-1c-0.6-0.4-1.1-0.9-1.4-1.5
					c-0.4-0.6-0.5-1.3-0.5-2.2c0-0.7,0.1-1.4,0.4-2c0.3-0.6,0.7-1.2,1.2-1.8c0.5-0.6,1.1-1.1,1.7-1.6c0.6-0.5,1.3-0.9,2-1.2
					c0.7-0.3,1.4-0.6,2.1-0.8c0.7-0.2,1.4-0.3,2-0.3H69c0.2,0.1,0.4,0.2,0.8,0.3c0.3,0.2,0.6,0.3,0.9,0.4c0.3,0.1,0.6,0.3,0.8,0.4
					c0.2,0.1,0.3,0.2,0.3,0.2v0.8c-0.4,0-1,0.1-1.6,0.3c-0.7,0.1-1.3,0.3-2.1,0.5c-0.7,0.2-1.4,0.4-2.2,0.7c-0.7,0.3-1.4,0.6-2,1
					c-0.6,0.4-1.1,0.8-1.4,1.4c-0.4,0.5-0.5,1.1-0.5,1.7c0,0.9,0.3,1.7,1,2.2c0.7,0.5,1.5,1,2.4,1.3c1,0.3,2.1,0.7,3.2,0.9
					c1.2,0.3,2.2,0.6,3.2,1c1,0.4,1.8,0.9,2.4,1.5c0.7,0.6,1,1.4,1,2.5c0,0.6-0.2,1.1-0.5,1.8c-0.3,0.6-0.8,1.2-1.3,1.8
					c-0.6,0.6-1.2,1.2-1.9,1.7c-0.7,0.5-1.4,1-2.1,1.4c-0.7,0.4-1.4,0.7-2.1,1c-0.7,0.3-1.3,0.4-1.9,0.4c-0.2,0-0.3,0-0.5-0.1
					c-0.2,0-0.4-0.1-0.5-0.2c-0.1-0.1-0.3-0.2-0.3-0.4C63.9,63.4,64,63.1,64.1,62.8z"/>
			</g>
		</g>
	</g>
	<g>
		<g transform="translate(215.824844, 192.694924)">
			<g>
				<path class="st6" d="M74.1,38.4c-0.1,0-0.3,0-0.5-0.1c-0.2-0.1-0.4-0.1-0.6-0.2c-0.2-0.1-0.4-0.2-0.6-0.2
					c-0.2-0.1-0.3-0.1-0.4-0.2c0,0,0-0.1,0-0.1c0,0,0-0.1,0-0.2c0-0.3,0.1-0.6,0.4-0.8c0.2-0.2,0.5-0.4,0.8-0.5
					c0.3-0.1,0.6-0.2,0.9-0.3c0.3-0.1,0.5-0.1,0.7-0.2h0.7c0.5,0,1.2,0.1,2,0.2c0.8,0.1,1.7,0.2,2.6,0.3c0.9,0.1,1.8,0.2,2.7,0.3
					c0.9,0.1,1.8,0.2,2.5,0.3c0.8,0.1,1.4,0.2,1.9,0.2C87.6,37,87.9,37,88,37c0.2,0,0.4,0.1,0.7,0.1c0.3,0.1,0.6,0.1,0.8,0.3
					c0.3,0.1,0.6,0.3,0.8,0.4c0.2,0.2,0.4,0.4,0.5,0.6c-0.2,0.3-0.3,0.6-0.5,0.8c-0.1,0.2-0.3,0.3-0.4,0.4c-0.1,0.1-0.3,0.1-0.5,0.1
					c-0.2,0-0.4,0-0.6,0c-0.9,0-1.8,0-2.8-0.1c-0.9-0.1-1.8-0.1-2.8-0.2c-0.9-0.1-1.8-0.1-2.8-0.2c-0.9-0.1-1.8-0.1-2.8-0.1
					c0,0.4-0.1,1-0.1,1.8c-0.1,0.8-0.2,1.6-0.2,2.5c-0.1,0.9,0,1.7,0.1,2.6c0.1,0.8,0.3,1.6,0.8,2.2c0.8-0.5,1.5-0.7,2.4-0.7
					c0.8,0,1.7,0,2.5,0c0.4,0,0.8,0,1.4,0c0.6,0,1.1,0.1,1.6,0.2c0.5,0.1,1,0.3,1.3,0.6c0.4,0.3,0.6,0.8,0.6,1.4
					c0,0.4-0.1,0.8-0.3,1c-0.2,0.2-0.6,0.3-1.2,0.3c-0.1,0-0.2,0-0.4-0.1c-0.2-0.1-0.4-0.1-0.6-0.2c-0.2-0.1-0.4-0.2-0.6-0.2
					c-0.2-0.1-0.3-0.1-0.4-0.1c0,0-0.1,0-0.3,0c-0.1,0-0.3,0-0.5,0c-0.2,0-0.4,0-0.6,0c-0.2,0-0.3,0-0.4,0c-0.5,0-1,0-1.5,0.1
					c-0.5,0.1-0.9,0.2-1.2,0.4c-0.3,0.2-0.6,0.5-0.8,0.9C79,52,78.9,52.4,78.9,53c0,0.2,0,0.5,0.1,1c0,0.5,0.1,1,0.2,1.6
					c0.1,0.6,0.2,1.2,0.3,1.8c0.1,0.6,0.3,1.2,0.5,1.7c0.2,0.5,0.5,0.9,0.7,1.3c0.3,0.3,0.6,0.5,1,0.5c0,0,0.1,0,0.3,0
					c0.2,0,0.3,0,0.4,0c0.7-0.5,1.5-1,2.2-1.6c0.8-0.6,1.5-1.1,2.3-1.6c0.8-0.5,1.6-0.9,2.5-1.3c0.9-0.4,1.8-0.5,2.7-0.5v1.6
					c0,0.1-0.2,0.3-0.6,0.7c-0.4,0.4-1,0.8-1.6,1.4c-0.7,0.5-1.4,1.1-2.3,1.6c-0.8,0.6-1.7,1.1-2.5,1.6c-0.8,0.5-1.7,0.9-2.4,1.2
					c-0.8,0.3-1.4,0.5-1.9,0.5c-0.7,0-1.4-0.3-2-1c-0.6-0.7-1.1-1.5-1.5-2.6c-0.5-1.1-0.8-2.4-1.1-3.8c-0.3-1.4-0.6-2.9-0.8-4.4
					c-0.2-1.5-0.4-3-0.6-4.5c-0.1-1.5-0.3-2.9-0.3-4.2c-0.1-1.3-0.1-2.4-0.2-3.4C74.1,39.4,74.1,38.8,74.1,38.4z"/>
			</g>
		</g>
	</g>
	<g>
		<g transform="translate(240.008189, 192.694924)">
			<g>
				<path class="st6" d="M85.6,62.8c0.1-0.5,0.4-1,0.8-1.3c0.4-0.3,0.9-0.6,1.5-0.9c0.6-0.3,1.2-0.6,1.8-0.8
					c0.6-0.3,1.2-0.5,1.8-0.8c0.5-0.3,1-0.6,1.3-1c0.3-0.4,0.5-0.9,0.5-1.4c0-0.7-0.2-1.3-0.5-1.7c-0.3-0.5-0.8-0.8-1.4-1.2
					c-0.6-0.3-1.3-0.6-2-0.8c-0.8-0.2-1.5-0.4-2.3-0.7c-0.8-0.2-1.6-0.5-2.3-0.8c-0.8-0.3-1.4-0.6-2-1c-0.6-0.4-1.1-0.9-1.4-1.5
					c-0.4-0.6-0.5-1.3-0.5-2.2c0-0.7,0.1-1.4,0.4-2c0.3-0.6,0.7-1.2,1.2-1.8c0.5-0.6,1.1-1.1,1.7-1.6c0.6-0.5,1.3-0.9,2-1.2
					c0.7-0.3,1.4-0.6,2.1-0.8c0.7-0.2,1.4-0.3,2-0.3h0.4c0.2,0.1,0.4,0.2,0.8,0.3c0.3,0.2,0.6,0.3,0.9,0.4c0.3,0.1,0.6,0.3,0.8,0.4
					c0.2,0.1,0.3,0.2,0.3,0.2v0.8c-0.4,0-1,0.1-1.6,0.3c-0.7,0.1-1.3,0.3-2.1,0.5c-0.7,0.2-1.4,0.4-2.2,0.7c-0.7,0.3-1.4,0.6-2,1
					c-0.6,0.4-1.1,0.8-1.4,1.4c-0.4,0.5-0.5,1.1-0.5,1.7c0,0.9,0.3,1.7,1,2.2c0.7,0.5,1.5,1,2.4,1.3c1,0.3,2.1,0.7,3.2,0.9
					c1.2,0.3,2.2,0.6,3.2,1c1,0.4,1.8,0.9,2.4,1.5c0.7,0.6,1,1.4,1,2.5c0,0.6-0.2,1.1-0.5,1.8c-0.3,0.6-0.8,1.2-1.3,1.8
					c-0.6,0.6-1.2,1.2-1.9,1.7c-0.7,0.5-1.4,1-2.1,1.4c-0.7,0.4-1.4,0.7-2.1,1c-0.7,0.3-1.3,0.4-1.9,0.4c-0.2,0-0.3,0-0.5-0.1
					c-0.2,0-0.4-0.1-0.5-0.2c-0.1-0.1-0.3-0.2-0.3-0.4C85.4,63.4,85.5,63.1,85.6,62.8z"/>
			</g>
		</g>
	</g>
	<g>
		<g transform="translate(261.042611, 192.694924)">
			<g>
				<path class="st6" d="M87,41.3c0.8-0.4,1.6-0.8,2.4-1s1.5-0.3,2.3-0.4c0.8-0.1,1.5-0.1,2.3-0.1c0.8,0,1.6,0,2.5,0
					c0.2,0,0.5,0,0.9,0c0.4,0,0.9,0,1.4,0c0.5,0,0.9,0,1.3,0c0.4,0,0.7,0,0.9,0c0.2,0.1,0.4,0.2,0.5,0.5c0.1,0.2,0.2,0.4,0.3,0.7
					c0.1,0.2,0.1,0.5,0.1,0.7c0,0.3,0,0.4,0,0.6H91.2v7h11.6c0,0.7-0.2,1.3-0.7,1.8c-0.5,0.4-1,0.7-1.7,1c-0.7,0.2-1.4,0.4-2.3,0.5
					c-0.8,0.1-1.7,0.1-2.4,0.1c-0.8,0-1.4,0-2-0.1c-0.6,0-1-0.1-1.2-0.1v0.7c0,0.9,0.2,1.8,0.6,2.6c0.4,0.8,0.9,1.6,1.5,2.4
					c0.5,0.8,1,1.5,1.5,2.2c0.4,0.7,0.7,1.5,0.7,2.3c0,0.5-0.1,0.9-0.3,1.3c-0.2,0.3-0.6,0.5-1.1,0.5c-0.5,0-1.1-0.3-1.6-0.8
					c-0.5-0.6-1-1.3-1.5-2.3c-0.5-0.9-1-2-1.4-3.3c-0.4-1.2-0.9-2.5-1.3-3.9c-0.4-1.3-0.8-2.7-1.1-4c-0.3-1.3-0.6-2.5-0.8-3.7
					c-0.2-1.1-0.4-2.1-0.5-3c-0.1-0.9-0.2-1.5-0.2-1.9V41.3z"/>
			</g>
		</g>
	</g>
	<g>
		<g transform="translate(281.56443, 192.694924)">
			<g>
				<path class="st6" d="M96,38.4c-0.1,0-0.3,0-0.5-0.1c-0.2-0.1-0.4-0.1-0.6-0.2c-0.2-0.1-0.4-0.2-0.6-0.2
					c-0.2-0.1-0.3-0.1-0.4-0.2c0,0,0-0.1,0-0.1c0,0,0-0.1,0-0.2c0-0.3,0.1-0.6,0.4-0.8c0.2-0.2,0.5-0.4,0.8-0.5
					c0.3-0.1,0.6-0.2,0.9-0.3c0.3-0.1,0.5-0.1,0.7-0.2h0.7c0.5,0,1.2,0.1,2,0.2c0.8,0.1,1.7,0.2,2.6,0.3c0.9,0.1,1.8,0.2,2.7,0.3
					c0.9,0.1,1.8,0.2,2.5,0.3c0.8,0.1,1.4,0.2,1.9,0.2c0.5,0.1,0.8,0.1,0.9,0.1c0.2,0,0.4,0.1,0.7,0.1c0.3,0.1,0.6,0.1,0.8,0.3
					c0.3,0.1,0.6,0.3,0.8,0.4c0.2,0.2,0.4,0.4,0.5,0.6c-0.2,0.3-0.3,0.6-0.5,0.8c-0.1,0.2-0.3,0.3-0.4,0.4c-0.1,0.1-0.3,0.1-0.5,0.1
					c-0.2,0-0.4,0-0.6,0c-0.9,0-1.8,0-2.8-0.1c-0.9-0.1-1.8-0.1-2.8-0.2c-0.9-0.1-1.8-0.1-2.8-0.2c-0.9-0.1-1.8-0.1-2.8-0.1
					c0,0.4-0.1,1-0.1,1.8c-0.1,0.8-0.2,1.6-0.2,2.5c-0.1,0.9,0,1.7,0.1,2.6c0.1,0.8,0.3,1.6,0.8,2.2c0.8-0.5,1.5-0.7,2.4-0.7
					c0.8,0,1.7,0,2.5,0c0.4,0,0.8,0,1.4,0c0.6,0,1.1,0.1,1.6,0.2c0.5,0.1,1,0.3,1.3,0.6c0.4,0.3,0.6,0.8,0.6,1.4
					c0,0.4-0.1,0.8-0.3,1c-0.2,0.2-0.6,0.3-1.2,0.3c-0.1,0-0.2,0-0.4-0.1c-0.2-0.1-0.4-0.1-0.6-0.2c-0.2-0.1-0.4-0.2-0.6-0.2
					c-0.2-0.1-0.3-0.1-0.4-0.1c0,0-0.1,0-0.3,0c-0.1,0-0.3,0-0.5,0c-0.2,0-0.4,0-0.6,0c-0.2,0-0.3,0-0.4,0c-0.5,0-1,0-1.5,0.1
					c-0.5,0.1-0.9,0.2-1.2,0.4c-0.3,0.2-0.6,0.5-0.8,0.9c-0.2,0.4-0.3,0.8-0.3,1.4c0,0.2,0,0.5,0.1,1c0,0.5,0.1,1,0.2,1.6
					c0.1,0.6,0.2,1.2,0.3,1.8c0.1,0.6,0.3,1.2,0.5,1.7c0.2,0.5,0.5,0.9,0.7,1.3c0.3,0.3,0.6,0.5,1,0.5c0,0,0.1,0,0.3,0
					c0.2,0,0.3,0,0.4,0c0.7-0.5,1.5-1,2.2-1.6c0.8-0.6,1.5-1.1,2.3-1.6c0.8-0.5,1.6-0.9,2.5-1.3c0.9-0.4,1.8-0.5,2.7-0.5v1.6
					c0,0.1-0.2,0.3-0.6,0.7c-0.4,0.4-1,0.8-1.6,1.4c-0.7,0.5-1.4,1.1-2.3,1.6c-0.8,0.6-1.7,1.1-2.5,1.6c-0.8,0.5-1.7,0.9-2.4,1.2
					c-0.8,0.3-1.4,0.5-1.9,0.5c-0.7,0-1.4-0.3-2-1c-0.6-0.7-1.1-1.5-1.5-2.6c-0.5-1.1-0.8-2.4-1.1-3.8c-0.3-1.4-0.6-2.9-0.8-4.4
					c-0.2-1.5-0.4-3-0.6-4.5c-0.1-1.5-0.3-2.9-0.3-4.2c-0.1-1.3-0.1-2.4-0.2-3.4C96,39.4,96,38.8,96,38.4z"/>
			</g>
		</g>
	</g>
	<g>
		<g transform="translate(305.747785, 192.694924)">
			<g>
				<path class="st6" d="M101.9,41.3c0-0.2,0-0.5,0-0.9c0-0.4,0-0.8,0-1.3c0-0.5,0-0.9,0-1.3c0-0.4,0-0.7,0-0.8
					c0.2-0.5,0.6-0.8,1.1-1c0.5-0.2,1.1-0.3,1.7-0.4c0.6-0.1,1.2-0.1,1.8-0.1c0.6,0,1,0,1.4,0c0.5,0,1,0,1.7,0.1
					c0.7,0,1.3,0.1,1.9,0.3c0.6,0.1,1.3,0.3,1.9,0.5c0.6,0.2,1.2,0.5,1.7,0.9c0.5,0.3,0.9,0.8,1.2,1.3c0.3,0.5,0.4,1.1,0.4,1.8
					c0,0.8-0.2,1.6-0.6,2.2c-0.4,0.7-0.9,1.3-1.5,1.9c-0.6,0.6-1.2,1.1-1.9,1.6c-0.7,0.5-1.3,1-1.9,1.5c-0.6,0.5-1.1,1-1.5,1.5
					c-0.4,0.5-0.6,1-0.6,1.6c0,0,0,0.1,0,0.2c0,0.1,0.1,0.1,0.1,0.1c2.6,0.8,5,1.7,7.5,2.8c2.4,1.1,4.8,2.3,7.2,3.5
					c0.1,0,0.1,0.1,0.2,0.3c0.1,0.1,0.2,0.3,0.2,0.4c0.1,0.2,0.1,0.3,0.2,0.5c0.1,0.1,0.1,0.2,0.1,0.3c0,0.2-0.1,0.3-0.2,0.4
					c-0.1,0.1-0.2,0.2-0.4,0.2c-0.2,0.1-0.3,0.1-0.5,0.1c-0.1,0-0.3,0-0.4,0c-1.2,0-2.4-0.3-3.5-0.8c-1.2-0.5-2.3-1.1-3.5-1.7
					c-1.2-0.6-2.4-1.2-3.6-1.7c-1.2-0.5-2.4-0.8-3.8-0.8h-1c0.3,0.8,0.7,1.5,0.9,2.1c0.3,0.6,0.5,1.2,0.7,1.8
					c0.2,0.6,0.3,1.2,0.4,1.8c0.1,0.6,0.1,1.2,0.1,1.9c0,0.2,0,0.3,0,0.5c0,0.2,0,0.4,0,0.6c0,0.2-0.1,0.4-0.2,0.6
					c-0.1,0.2-0.3,0.3-0.5,0.4c-0.9-0.5-1.7-1.3-2.4-2.4c-0.7-1.1-1.3-2.3-1.9-3.8c-0.5-1.4-1-2.9-1.3-4.5c-0.3-1.6-0.6-3.2-0.9-4.7
					c-0.2-1.5-0.4-3-0.5-4.3C101.9,43.3,101.9,42.1,101.9,41.3z M104.6,43.3c0,0.3,0,0.7,0,1.1c0,0.4,0,0.9,0,1.4
					c0,0.5,0.1,0.9,0.2,1.3c0.1,0.4,0.3,0.8,0.6,1.1c0,0,0.1,0,0.1,0c0,0,0.1,0,0.2,0c0.4,0,0.9-0.1,1.4-0.4c0.6-0.3,1.1-0.6,1.8-1
					c0.6-0.4,1.2-0.8,1.8-1.3c0.6-0.5,1.1-1,1.6-1.6c0.5-0.5,0.9-1.1,1.1-1.6c0.3-0.6,0.4-1.1,0.4-1.5c0-0.4-0.2-0.8-0.5-1.1
					c-0.3-0.3-0.7-0.6-1.2-0.8c-0.5-0.2-0.9-0.4-1.4-0.4c-0.5-0.1-0.9-0.1-1.2-0.1c-0.4,0-0.8,0-1.3,0c-0.5,0-1,0-1.5,0.1
					c-0.5,0.1-0.9,0.2-1.3,0.4c-0.4,0.2-0.7,0.5-0.8,0.9c0,0.1,0,0.4,0,0.7c0,0.3,0,0.7,0,1s0,0.7,0,1.1
					C104.7,42.9,104.6,43.1,104.6,43.3z"/>
			</g>
		</g>
	</g>
	<g>
		<g transform="translate(330.956371, 192.694924)">
			<g>
				<path class="st6" d="M118,35.6c0.1-0.4,0.3-0.6,0.6-0.7c0.3-0.1,0.5-0.1,0.9-0.1c0.5,0,1,0.3,1.7,1c0.6,0.7,1.3,1.5,1.9,2.6
					c0.7,1.1,1.3,2.4,2,3.8c0.7,1.4,1.3,2.9,1.9,4.4c0.6,1.5,1.2,3.1,1.8,4.6c0.5,1.5,1,2.9,1.4,4.2c0.4,1.3,0.7,2.4,0.9,3.3
					c0.2,0.9,0.3,1.6,0.3,1.9c0,0.3-0.1,0.7-0.3,1c-0.2,0.3-0.5,0.5-0.9,0.5c-0.3,0-0.5-0.1-0.7-0.2c-0.2-0.2-0.3-0.4-0.5-0.6
					c-0.1-0.3-0.2-0.5-0.4-0.7c-0.1-0.2-0.2-0.4-0.3-0.6c-0.1-0.2-0.3-0.7-0.5-1.4c-0.3-0.7-0.6-1.4-0.9-2.1
					c-0.3-0.7-0.6-1.4-0.8-2.1c-0.3-0.7-0.4-1.1-0.5-1.4c-1.5-0.3-3-0.5-4.6-0.7c-1.5-0.2-3.1-0.5-4.8-0.7h-0.4
					c-0.8,3.4-1.5,6-2.1,8c-0.6,1.9-1.1,3.3-1.5,4.2c-0.4,0.8-0.7,1.2-1,1c-0.2-0.1-0.4-0.6-0.5-1.5c-0.1-0.9-0.1-2,0-3.4
					c0.1-1.4,0.3-3,0.6-4.7c0.3-1.7,0.6-3.5,1-5.4c0.4-1.9,0.9-3.7,1.4-5.5c0.6-1.8,1.2-3.4,1.9-4.9C116.5,37.9,117.2,36.6,118,35.6
					z M117.2,47.1c0,0.8,0.3,1.4,0.8,1.8c0.5,0.4,1.2,0.6,1.9,0.7c0.8,0.1,1.5,0.1,2.3,0.1c0.8,0,1.5,0,2.1,0c0-0.9-0.1-1.8-0.4-2.8
					c-0.3-1-0.6-2-1.1-3c-0.4-1-0.9-2-1.4-2.9c-0.5-0.9-0.9-1.8-1.3-2.6c-0.2,0.2-0.5,0.7-0.8,1.3c-0.3,0.6-0.5,1.4-0.8,2.1
					c-0.3,0.8-0.5,1.6-0.8,2.3c-0.2,0.8-0.4,1.4-0.5,1.9c0,0.1,0,0.2,0,0.5C117.2,46.9,117.2,47,117.2,47.1z"/>
			</g>
		</g>
	</g>
</g>
<g class="st7">
	<g>
		<g transform="translate(27.288949, 192.694924)">
			<g>
				<path class="st8" d="M11.2,38.4c-0.1,0-0.3,0-0.5-0.1c-0.2-0.1-0.4-0.1-0.6-0.2c-0.2-0.1-0.4-0.2-0.6-0.2
					c-0.2-0.1-0.3-0.1-0.4-0.2c0,0,0-0.1,0-0.1c0,0,0-0.1,0-0.2c0-0.3,0.1-0.6,0.4-0.8c0.2-0.2,0.5-0.4,0.8-0.5
					c0.3-0.1,0.6-0.2,0.9-0.3c0.3-0.1,0.5-0.1,0.7-0.2h0.7c0.5,0,1.2,0.1,2,0.2c0.8,0.1,1.7,0.2,2.6,0.3c0.9,0.1,1.8,0.2,2.7,0.3
					c0.9,0.1,1.8,0.2,2.5,0.3c0.8,0.1,1.4,0.2,1.9,0.2c0.5,0.1,0.8,0.1,0.9,0.1c0.2,0,0.4,0.1,0.7,0.1c0.3,0.1,0.6,0.1,0.8,0.3
					c0.3,0.1,0.6,0.3,0.8,0.4c0.2,0.2,0.4,0.4,0.5,0.6c-0.2,0.3-0.3,0.6-0.5,0.8c-0.1,0.2-0.3,0.3-0.4,0.4c-0.1,0.1-0.3,0.1-0.5,0.1
					c-0.2,0-0.4,0-0.6,0c-0.9,0-1.8,0-2.8-0.1c-0.9-0.1-1.8-0.1-2.8-0.2c-0.9-0.1-1.8-0.1-2.8-0.2c-0.9-0.1-1.8-0.1-2.8-0.1
					c0,0.4-0.1,1-0.1,1.8c-0.1,0.8-0.2,1.6-0.2,2.5c-0.1,0.9,0,1.7,0.1,2.6c0.1,0.8,0.3,1.6,0.8,2.2c0.7-0.5,1.5-0.7,2.4-0.7
					c0.8,0,1.7,0,2.5,0c0.4,0,0.8,0,1.4,0c0.6,0,1.1,0.1,1.6,0.2c0.5,0.1,1,0.3,1.3,0.6c0.4,0.3,0.6,0.8,0.6,1.4
					c0,0.4-0.1,0.8-0.3,1c-0.2,0.2-0.6,0.3-1.2,0.3c-0.1,0-0.2,0-0.4-0.1c-0.2-0.1-0.4-0.1-0.6-0.2c-0.2-0.1-0.4-0.2-0.6-0.2
					c-0.2-0.1-0.3-0.1-0.4-0.1c0,0-0.1,0-0.3,0c-0.1,0-0.3,0-0.5,0c-0.2,0-0.4,0-0.6,0c-0.2,0-0.3,0-0.4,0c-0.5,0-1,0-1.5,0.1
					c-0.5,0.1-0.9,0.2-1.2,0.4c-0.3,0.2-0.6,0.5-0.8,0.9c-0.2,0.4-0.3,0.8-0.3,1.4c0,0.2,0,0.5,0.1,1c0,0.5,0.1,1,0.2,1.6
					c0.1,0.6,0.2,1.2,0.3,1.8c0.1,0.6,0.3,1.2,0.5,1.7c0.2,0.5,0.5,0.9,0.7,1.3c0.3,0.3,0.6,0.5,1,0.5c0,0,0.1,0,0.3,0
					c0.2,0,0.3,0,0.4,0c0.7-0.5,1.5-1,2.2-1.6c0.8-0.6,1.5-1.1,2.3-1.6c0.8-0.5,1.6-0.9,2.5-1.3c0.9-0.4,1.8-0.5,2.7-0.5v1.6
					c0,0.1-0.2,0.3-0.6,0.7c-0.4,0.4-1,0.8-1.6,1.4c-0.7,0.5-1.4,1.1-2.3,1.6c-0.8,0.6-1.7,1.1-2.5,1.6c-0.8,0.5-1.7,0.9-2.4,1.2
					c-0.8,0.3-1.4,0.5-1.9,0.5c-0.7,0-1.4-0.3-2-1c-0.6-0.7-1.1-1.5-1.5-2.6c-0.5-1.1-0.8-2.4-1.1-3.8c-0.3-1.4-0.6-2.9-0.8-4.4
					c-0.2-1.5-0.4-3-0.6-4.5c-0.1-1.5-0.3-2.9-0.3-4.2c-0.1-1.3-0.1-2.4-0.2-3.4C11.3,39.4,11.2,38.8,11.2,38.4z"/>
			</g>
		</g>
	</g>
	<g>
		<g transform="translate(51.472296, 192.694924)">
			<g>
				<path class="st8" d="M17.2,40.7c1,0,1.8,0.3,2.4,0.9c0.6,0.6,1.2,1.3,1.6,2.2c0.4,0.9,0.8,1.9,1.1,3.1c0.3,1.2,0.6,2.3,0.8,3.6
					c0.3,1.2,0.5,2.4,0.8,3.6c0.3,1.2,0.6,2.2,1,3.1c0.4,0.9,0.9,1.6,1.5,2.2c0.6,0.6,1.4,0.8,2.3,0.8c0,0,0.1,0,0.2,0
					c0,0,0.1-0.1,0.2-0.1c0.1,0,0.2-0.1,0.4-0.3c0.2-0.2,0.3-0.3,0.3-0.4c0-0.1,0.1-0.5,0.3-1.1c0.1-0.6,0.3-1.4,0.5-2.3
					c0.2-0.9,0.5-2,0.8-3.1c0.3-1.2,0.6-2.4,0.9-3.6c0.3-1.2,0.6-2.4,1-3.5c0.3-1.1,0.6-2.2,0.9-3c0.3-0.9,0.6-1.6,0.9-2.1
					c0.3-0.5,0.5-0.8,0.7-0.8c0.3,0,0.4,0.1,0.6,0.2c0.2,0.1,0.3,0.3,0.3,0.4c0.1,0.2,0.1,0.4,0.1,0.6c0,0.2,0,0.4,0,0.6
					c0,0.3-0.1,0.9-0.2,1.8c-0.1,0.8-0.3,1.8-0.5,2.9c-0.2,1.1-0.4,2.3-0.7,3.7c-0.3,1.3-0.6,2.7-1,4c-0.3,1.3-0.7,2.6-1.1,3.9
					s-0.8,2.4-1.3,3.3c-0.4,1-0.8,1.7-1.3,2.3c-0.4,0.6-0.9,0.9-1.3,0.9c-0.6,0-1.1-0.2-1.7-0.5c-0.5-0.3-1.1-0.8-1.5-1.3
					c-0.5-0.5-0.9-1.1-1.4-1.8c-0.4-0.7-0.8-1.3-1.1-2c-0.3-0.7-0.6-1.3-0.9-1.9c-0.3-0.6-0.5-1.1-0.7-1.6c-0.2-0.6-0.5-1.3-0.9-2.1
					c-0.3-0.8-0.7-1.7-1-2.6c-0.4-0.9-0.7-1.8-1.1-2.8c-0.3-0.9-0.7-1.8-1-2.5c-0.3-0.7-0.5-1.3-0.7-1.8c-0.2-0.5-0.3-0.7-0.3-0.8
					V40.7z"/>
			</g>
		</g>
	</g>
	<g>
		<g transform="translate(75.143028, 192.694924)">
			<g>
				<path class="st8" d="M27.2,38.4c-0.1,0-0.3,0-0.5-0.1c-0.2-0.1-0.4-0.1-0.6-0.2c-0.2-0.1-0.4-0.2-0.6-0.2
					c-0.2-0.1-0.3-0.1-0.4-0.2c0,0,0-0.1,0-0.1c0,0,0-0.1,0-0.2c0-0.3,0.1-0.6,0.4-0.8c0.2-0.2,0.5-0.4,0.8-0.5
					c0.3-0.1,0.6-0.2,0.9-0.3c0.3-0.1,0.5-0.1,0.7-0.2h0.7c0.5,0,1.2,0.1,2,0.2c0.8,0.1,1.7,0.2,2.6,0.3c0.9,0.1,1.8,0.2,2.7,0.3
					c0.9,0.1,1.8,0.2,2.5,0.3c0.8,0.1,1.4,0.2,1.9,0.2C40.7,37,41,37,41.1,37c0.2,0,0.4,0.1,0.7,0.1c0.3,0.1,0.6,0.1,0.8,0.3
					c0.3,0.1,0.6,0.3,0.8,0.4c0.2,0.2,0.4,0.4,0.5,0.6c-0.2,0.3-0.3,0.6-0.5,0.8c-0.1,0.2-0.3,0.3-0.4,0.4c-0.1,0.1-0.3,0.1-0.5,0.1
					s-0.4,0-0.6,0c-0.9,0-1.8,0-2.8-0.1c-0.9-0.1-1.8-0.1-2.8-0.2c-0.9-0.1-1.8-0.1-2.8-0.2c-0.9-0.1-1.8-0.1-2.8-0.1
					c0,0.4-0.1,1-0.1,1.8c-0.1,0.8-0.2,1.6-0.2,2.5c-0.1,0.9,0,1.7,0.1,2.6c0.1,0.8,0.3,1.6,0.8,2.2c0.8-0.5,1.5-0.7,2.4-0.7
					c0.8,0,1.7,0,2.5,0c0.4,0,0.8,0,1.4,0c0.6,0,1.1,0.1,1.6,0.2c0.5,0.1,1,0.3,1.3,0.6c0.4,0.3,0.6,0.8,0.6,1.4
					c0,0.4-0.1,0.8-0.3,1c-0.2,0.2-0.6,0.3-1.2,0.3c-0.1,0-0.2,0-0.4-0.1c-0.2-0.1-0.4-0.1-0.6-0.2c-0.2-0.1-0.4-0.2-0.6-0.2
					c-0.2-0.1-0.3-0.1-0.4-0.1c0,0-0.1,0-0.3,0c-0.1,0-0.3,0-0.5,0c-0.2,0-0.4,0-0.6,0c-0.2,0-0.3,0-0.4,0c-0.5,0-1,0-1.5,0.1
					c-0.5,0.1-0.9,0.2-1.2,0.4c-0.3,0.2-0.6,0.5-0.8,0.9C32.2,52,32,52.4,32,53c0,0.2,0,0.5,0.1,1c0,0.5,0.1,1,0.2,1.6
					c0.1,0.6,0.2,1.2,0.3,1.8c0.1,0.6,0.3,1.2,0.5,1.7c0.2,0.5,0.5,0.9,0.7,1.3c0.3,0.3,0.6,0.5,1,0.5c0,0,0.1,0,0.3,0
					c0.2,0,0.3,0,0.4,0c0.7-0.5,1.5-1,2.2-1.6c0.8-0.6,1.5-1.1,2.3-1.6c0.8-0.5,1.6-0.9,2.5-1.3c0.9-0.4,1.8-0.5,2.7-0.5v1.6
					c0,0.1-0.2,0.3-0.6,0.7c-0.4,0.4-1,0.8-1.6,1.4c-0.7,0.5-1.4,1.1-2.3,1.6c-0.8,0.6-1.7,1.1-2.5,1.6c-0.8,0.5-1.7,0.9-2.4,1.2
					c-0.8,0.3-1.4,0.5-1.9,0.5c-0.7,0-1.4-0.3-2-1c-0.6-0.7-1.1-1.5-1.5-2.6c-0.5-1.1-0.8-2.4-1.1-3.8c-0.3-1.4-0.6-2.9-0.8-4.4
					c-0.2-1.5-0.4-3-0.6-4.5c-0.1-1.5-0.3-2.9-0.3-4.2c-0.1-1.3-0.1-2.4-0.2-3.4C27.2,39.4,27.2,38.8,27.2,38.4z"/>
			</g>
		</g>
	</g>
	<g>
		<g transform="translate(99.326378, 192.694924)">
			<g>
				<path class="st8" d="M35.2,62.8c-0.1-0.3-0.2-0.8-0.4-1.5c-0.1-0.7-0.3-1.4-0.5-2.1c-0.2-0.8-0.3-1.6-0.5-2.5
					c-0.2-0.9-0.3-1.7-0.4-2.5c-0.1-0.8-0.2-1.6-0.3-2.3c-0.1-0.7-0.1-1.3-0.1-1.7c0-0.2,0-0.5,0.1-1c0-0.5,0.1-1,0.2-1.5
					c0.1-0.5,0.2-1,0.3-1.5c0.1-0.5,0.2-0.8,0.2-1c0.1,0,0.2,0,0.4,0c0.2,0,0.3,0,0.5,0c0.2,0,0.4,0,0.5-0.1c0.2,0,0.3,0,0.3,0
					c1,0,2,0.2,3,0.6c0.9,0.4,1.8,0.9,2.7,1.6c0.8,0.6,1.7,1.3,2.5,2.1c0.8,0.8,1.6,1.5,2.4,2.3c0.8,0.7,1.7,1.4,2.5,2
					c0.8,0.6,1.8,1.1,2.7,1.4c0-0.1,0-0.3,0-0.5c0-0.2,0-0.5,0-0.8c0-0.3,0-0.5,0-0.7c0-0.2,0-0.4,0-0.5c0-1.4-0.1-2.7-0.3-4
					c-0.2-1.3-0.4-2.6-0.6-3.9c-0.2-1.3-0.4-2.6-0.6-3.9c-0.2-1.3-0.3-2.7-0.3-4.1c0.2,0,0.3,0,0.6,0c0.2,0,0.5,0.1,0.7,0.1
					c0.2,0.1,0.4,0.1,0.6,0.3c0.2,0.1,0.3,0.3,0.4,0.5c0.1,1.6,0.3,3.1,0.6,4.7c0.3,1.6,0.6,3.1,0.9,4.7c0.3,1.6,0.6,3.1,0.9,4.7
					c0.3,1.6,0.4,3.1,0.4,4.7c0,0.3,0,0.6,0,0.9c0,0.3-0.1,0.6-0.1,0.9c-0.1,0.3-0.2,0.5-0.4,0.7c-0.2,0.2-0.4,0.3-0.8,0.3
					c-1.1,0-2.2-0.3-3.1-0.8c-1-0.5-1.9-1.1-2.8-1.9c-0.9-0.8-1.8-1.6-2.6-2.5c-0.9-0.9-1.7-1.8-2.6-2.5c-0.9-0.8-1.8-1.4-2.8-1.9
					c-1-0.5-2-0.8-3.1-0.8c0,1.2,0.1,2.4,0.3,3.5c0.2,1.1,0.4,2.2,0.6,3.3c0.2,1.1,0.4,2.2,0.6,3.3c0.2,1.1,0.3,2.2,0.3,3.3
					c0,0.4-0.1,0.7-0.4,0.9c-0.3,0.2-0.6,0.2-1,0.2c-0.3,0-0.5,0-0.8-0.1C35.5,63.5,35.4,63.2,35.2,62.8z"/>
			</g>
		</g>
	</g>
	<g>
		<g transform="translate(124.046747, 192.694924)">
			<g>
				<path class="st8" d="M54.6,44.7c-0.1-0.3-0.3-0.5-0.5-0.6c-0.3-0.1-0.5-0.2-0.8-0.2c-0.3,0-0.6,0-0.9,0.1C52.2,44,52,44,51.8,44
					c-0.4,0-1-0.1-1.9-0.1c-0.9-0.1-1.9-0.1-2.9-0.2c-1.1-0.1-2-0.2-3-0.2c-0.9-0.1-1.5-0.1-1.9-0.2c0,0,0-0.1,0-0.3
					c0-0.2,0-0.3,0-0.4c0-0.3,0-0.6,0.1-0.8c0.1-0.3,0.3-0.4,0.6-0.6c2,0,4,0,6,0c2-0.1,4-0.2,6-0.3c2-0.1,4-0.2,6-0.3
					c2-0.1,4-0.2,6-0.2c0,0.8-0.2,1.4-0.6,1.8c-0.4,0.4-0.9,0.6-1.4,0.8c-0.6,0.1-1.2,0.2-1.9,0.1c-0.7,0-1.4,0-2,0
					c-0.6,0-1.2,0.2-1.7,0.4c-0.5,0.2-0.8,0.6-1,1.1c0,0.1,0,0.4-0.1,0.8c0,0.4-0.1,0.8-0.1,1.2c0,0.4,0,0.8,0,1.1
					c0,0.4,0,0.6,0,0.8c0,1.2,0.2,2.5,0.5,3.7c0.3,1.2,0.7,2.4,1,3.6c0.4,1.2,0.7,2.4,1,3.5c0.3,1.2,0.5,2.4,0.5,3.6
					c0,0.9-0.5,1.4-1.6,1.4c-0.6,0-1.2-0.4-1.7-1.3c-0.5-0.9-0.9-2-1.3-3.3c-0.4-1.3-0.7-2.8-0.9-4.4c-0.2-1.6-0.4-3.1-0.6-4.5
					c-0.1-1.5-0.2-2.7-0.3-3.9C54.7,45.8,54.6,45,54.6,44.7z"/>
			</g>
		</g>
	</g>
	<g>
		<g transform="translate(151.891629, 192.694924)">
			<g>
				<path class="st8" d="M50.6,55.2c0-1.1,0.1-2.2,0.4-3.4c0.3-1.1,0.7-2.2,1.2-3.3c0.5-1,1.2-2,1.9-2.9c0.8-0.9,1.6-1.7,2.5-2.3
					c0.9-0.7,1.9-1.2,3-1.6c1.1-0.4,2.2-0.6,3.4-0.6c1.2,0,2.2,0.2,3.1,0.7c0.9,0.5,1.6,1.1,2.2,1.9c0.6,0.8,1,1.7,1.3,2.7
					c0.3,1,0.4,2,0.4,3.1c0,1.8-0.3,3.6-0.8,5.4c-0.5,1.8-1.3,3.3-2.4,4.8c-1.1,1.4-2.4,2.5-4,3.4c-1.6,0.8-3.4,1.3-5.4,1.3
					c-1.2,0-2.3-0.3-3.1-0.8c-0.9-0.6-1.6-1.3-2.2-2.1c-0.6-0.9-1-1.8-1.3-2.9C50.8,57.3,50.6,56.2,50.6,55.2z M53.4,55.9
					c0,0.6,0.1,1.2,0.3,1.9c0.2,0.7,0.5,1.3,0.8,1.8c0.3,0.5,0.8,1,1.3,1.4c0.5,0.4,1.1,0.5,1.8,0.5c1.5,0,2.8-0.3,4-1
					c1.2-0.7,2.2-1.5,3.1-2.6c0.9-1.1,1.5-2.2,2-3.5c0.5-1.3,0.7-2.6,0.7-3.9c0-0.8,0-1.5-0.1-2.3c0-0.8-0.2-1.5-0.4-2.1
					c-0.2-0.6-0.6-1.2-1.1-1.6c-0.5-0.4-1.3-0.6-2.2-0.6c-0.3,0-0.7,0-1.2,0c-0.5,0-1,0.1-1.5,0.2c-0.5,0.1-0.9,0.2-1.3,0.4
					C59.2,44.8,59,45,59,45.4c0,0,0,0.1,0.1,0.3c0.1,0.1,0.2,0.3,0.3,0.4c0.1,0.2,0.2,0.3,0.2,0.4c0.1,0.1,0.1,0.2,0.1,0.3
					c0,0-0.1,0.2-0.3,0.4c-0.2,0.2-0.3,0.3-0.4,0.3c-1.1,0.3-2,0.6-2.7,1.1c-0.7,0.4-1.3,1-1.7,1.6c-0.4,0.7-0.7,1.5-0.9,2.4
					C53.5,53.5,53.4,54.6,53.4,55.9z"/>
			</g>
		</g>
	</g>
	<g>
		<g transform="translate(175.562358, 192.694924)">
			<g>
				<path class="st8" d="M64.1,62.8c0.1-0.5,0.4-1,0.8-1.3c0.4-0.3,0.9-0.6,1.5-0.9c0.6-0.3,1.2-0.6,1.8-0.8
					c0.6-0.3,1.2-0.5,1.8-0.8c0.5-0.3,1-0.6,1.3-1c0.3-0.4,0.5-0.9,0.5-1.4c0-0.7-0.2-1.3-0.5-1.7c-0.3-0.5-0.8-0.8-1.4-1.2
					c-0.6-0.3-1.3-0.6-2-0.8c-0.8-0.2-1.5-0.4-2.3-0.7c-0.8-0.2-1.6-0.5-2.3-0.8c-0.8-0.3-1.4-0.6-2-1c-0.6-0.4-1.1-0.9-1.4-1.5
					c-0.4-0.6-0.5-1.3-0.5-2.2c0-0.7,0.1-1.4,0.4-2c0.3-0.6,0.7-1.2,1.2-1.8c0.5-0.6,1.1-1.1,1.7-1.6c0.6-0.5,1.3-0.9,2-1.2
					c0.7-0.3,1.4-0.6,2.1-0.8c0.7-0.2,1.4-0.3,2-0.3H69c0.2,0.1,0.4,0.2,0.8,0.3c0.3,0.2,0.6,0.3,0.9,0.4c0.3,0.1,0.6,0.3,0.8,0.4
					c0.2,0.1,0.3,0.2,0.3,0.2v0.8c-0.4,0-1,0.1-1.6,0.3c-0.7,0.1-1.3,0.3-2.1,0.5c-0.7,0.2-1.4,0.4-2.2,0.7c-0.7,0.3-1.4,0.6-2,1
					c-0.6,0.4-1.1,0.8-1.4,1.4c-0.4,0.5-0.5,1.1-0.5,1.7c0,0.9,0.3,1.7,1,2.2c0.7,0.5,1.5,1,2.4,1.3c1,0.3,2.1,0.7,3.2,0.9
					c1.2,0.3,2.2,0.6,3.2,1c1,0.4,1.8,0.9,2.4,1.5c0.7,0.6,1,1.4,1,2.5c0,0.6-0.2,1.1-0.5,1.8c-0.3,0.6-0.8,1.2-1.3,1.8
					c-0.6,0.6-1.2,1.2-1.9,1.7c-0.7,0.5-1.4,1-2.1,1.4c-0.7,0.4-1.4,0.7-2.1,1c-0.7,0.3-1.3,0.4-1.9,0.4c-0.2,0-0.3,0-0.5-0.1
					c-0.2,0-0.4-0.1-0.5-0.2c-0.1-0.1-0.3-0.2-0.3-0.4C63.9,63.4,64,63.1,64.1,62.8z"/>
			</g>
		</g>
	</g>
	<g>
		<g transform="translate(215.824844, 192.694924)">
			<g>
				<path class="st8" d="M74.1,38.4c-0.1,0-0.3,0-0.5-0.1c-0.2-0.1-0.4-0.1-0.6-0.2c-0.2-0.1-0.4-0.2-0.6-0.2
					c-0.2-0.1-0.3-0.1-0.4-0.2c0,0,0-0.1,0-0.1c0,0,0-0.1,0-0.2c0-0.3,0.1-0.6,0.4-0.8c0.2-0.2,0.5-0.4,0.8-0.5
					c0.3-0.1,0.6-0.2,0.9-0.3c0.3-0.1,0.5-0.1,0.7-0.2h0.7c0.5,0,1.2,0.1,2,0.2c0.8,0.1,1.7,0.2,2.6,0.3c0.9,0.1,1.8,0.2,2.7,0.3
					c0.9,0.1,1.8,0.2,2.5,0.3c0.8,0.1,1.4,0.2,1.9,0.2C87.6,37,87.9,37,88,37c0.2,0,0.4,0.1,0.7,0.1c0.3,0.1,0.6,0.1,0.8,0.3
					c0.3,0.1,0.6,0.3,0.8,0.4c0.2,0.2,0.4,0.4,0.5,0.6c-0.2,0.3-0.3,0.6-0.5,0.8c-0.1,0.2-0.3,0.3-0.4,0.4c-0.1,0.1-0.3,0.1-0.5,0.1
					c-0.2,0-0.4,0-0.6,0c-0.9,0-1.8,0-2.8-0.1c-0.9-0.1-1.8-0.1-2.8-0.2c-0.9-0.1-1.8-0.1-2.8-0.2c-0.9-0.1-1.8-0.1-2.8-0.1
					c0,0.4-0.1,1-0.1,1.8c-0.1,0.8-0.2,1.6-0.2,2.5c-0.1,0.9,0,1.7,0.1,2.6c0.1,0.8,0.3,1.6,0.8,2.2c0.8-0.5,1.5-0.7,2.4-0.7
					c0.8,0,1.7,0,2.5,0c0.4,0,0.8,0,1.4,0c0.6,0,1.1,0.1,1.6,0.2c0.5,0.1,1,0.3,1.3,0.6c0.4,0.3,0.6,0.8,0.6,1.4
					c0,0.4-0.1,0.8-0.3,1c-0.2,0.2-0.6,0.3-1.2,0.3c-0.1,0-0.2,0-0.4-0.1c-0.2-0.1-0.4-0.1-0.6-0.2c-0.2-0.1-0.4-0.2-0.6-0.2
					c-0.2-0.1-0.3-0.1-0.4-0.1c0,0-0.1,0-0.3,0c-0.1,0-0.3,0-0.5,0c-0.2,0-0.4,0-0.6,0c-0.2,0-0.3,0-0.4,0c-0.5,0-1,0-1.5,0.1
					c-0.5,0.1-0.9,0.2-1.2,0.4c-0.3,0.2-0.6,0.5-0.8,0.9C79,52,78.9,52.4,78.9,53c0,0.2,0,0.5,0.1,1c0,0.5,0.1,1,0.2,1.6
					c0.1,0.6,0.2,1.2,0.3,1.8c0.1,0.6,0.3,1.2,0.5,1.7c0.2,0.5,0.5,0.9,0.7,1.3c0.3,0.3,0.6,0.5,1,0.5c0,0,0.1,0,0.3,0
					c0.2,0,0.3,0,0.4,0c0.7-0.5,1.5-1,2.2-1.6c0.8-0.6,1.5-1.1,2.3-1.6c0.8-0.5,1.6-0.9,2.5-1.3c0.9-0.4,1.8-0.5,2.7-0.5v1.6
					c0,0.1-0.2,0.3-0.6,0.7c-0.4,0.4-1,0.8-1.6,1.4c-0.7,0.5-1.4,1.1-2.3,1.6c-0.8,0.6-1.7,1.1-2.5,1.6c-0.8,0.5-1.7,0.9-2.4,1.2
					c-0.8,0.3-1.4,0.5-1.9,0.5c-0.7,0-1.4-0.3-2-1c-0.6-0.7-1.1-1.5-1.5-2.6c-0.5-1.1-0.8-2.4-1.1-3.8c-0.3-1.4-0.6-2.9-0.8-4.4
					c-0.2-1.5-0.4-3-0.6-4.5c-0.1-1.5-0.3-2.9-0.3-4.2c-0.1-1.3-0.1-2.4-0.2-3.4C74.1,39.4,74.1,38.8,74.1,38.4z"/>
			</g>
		</g>
	</g>
	<g>
		<g transform="translate(240.008189, 192.694924)">
			<g>
				<path class="st8" d="M85.6,62.8c0.1-0.5,0.4-1,0.8-1.3c0.4-0.3,0.9-0.6,1.5-0.9c0.6-0.3,1.2-0.6,1.8-0.8
					c0.6-0.3,1.2-0.5,1.8-0.8c0.5-0.3,1-0.6,1.3-1c0.3-0.4,0.5-0.9,0.5-1.4c0-0.7-0.2-1.3-0.5-1.7c-0.3-0.5-0.8-0.8-1.4-1.2
					c-0.6-0.3-1.3-0.6-2-0.8c-0.8-0.2-1.5-0.4-2.3-0.7c-0.8-0.2-1.6-0.5-2.3-0.8c-0.8-0.3-1.4-0.6-2-1c-0.6-0.4-1.1-0.9-1.4-1.5
					c-0.4-0.6-0.5-1.3-0.5-2.2c0-0.7,0.1-1.4,0.4-2c0.3-0.6,0.7-1.2,1.2-1.8c0.5-0.6,1.1-1.1,1.7-1.6c0.6-0.5,1.3-0.9,2-1.2
					c0.7-0.3,1.4-0.6,2.1-0.8c0.7-0.2,1.4-0.3,2-0.3h0.4c0.2,0.1,0.4,0.2,0.8,0.3c0.3,0.2,0.6,0.3,0.9,0.4c0.3,0.1,0.6,0.3,0.8,0.4
					c0.2,0.1,0.3,0.2,0.3,0.2v0.8c-0.4,0-1,0.1-1.6,0.3c-0.7,0.1-1.3,0.3-2.1,0.5c-0.7,0.2-1.4,0.4-2.2,0.7c-0.7,0.3-1.4,0.6-2,1
					c-0.6,0.4-1.1,0.8-1.4,1.4c-0.4,0.5-0.5,1.1-0.5,1.7c0,0.9,0.3,1.7,1,2.2c0.7,0.5,1.5,1,2.4,1.3c1,0.3,2.1,0.7,3.2,0.9
					c1.2,0.3,2.2,0.6,3.2,1c1,0.4,1.8,0.9,2.4,1.5c0.7,0.6,1,1.4,1,2.5c0,0.6-0.2,1.1-0.5,1.8c-0.3,0.6-0.8,1.2-1.3,1.8
					c-0.6,0.6-1.2,1.2-1.9,1.7c-0.7,0.5-1.4,1-2.1,1.4c-0.7,0.4-1.4,0.7-2.1,1c-0.7,0.3-1.3,0.4-1.9,0.4c-0.2,0-0.3,0-0.5-0.1
					c-0.2,0-0.4-0.1-0.5-0.2c-0.1-0.1-0.3-0.2-0.3-0.4C85.4,63.4,85.5,63.1,85.6,62.8z"/>
			</g>
		</g>
	</g>
	<g>
		<g transform="translate(261.042611, 192.694924)">
			<g>
				<path class="st8" d="M87,41.3c0.8-0.4,1.6-0.8,2.4-1s1.5-0.3,2.3-0.4c0.8-0.1,1.5-0.1,2.3-0.1c0.8,0,1.6,0,2.5,0
					c0.2,0,0.5,0,0.9,0c0.4,0,0.9,0,1.4,0c0.5,0,0.9,0,1.3,0c0.4,0,0.7,0,0.9,0c0.2,0.1,0.4,0.2,0.5,0.5c0.1,0.2,0.2,0.4,0.3,0.7
					c0.1,0.2,0.1,0.5,0.1,0.7c0,0.3,0,0.4,0,0.6H91.2v7h11.6c0,0.7-0.2,1.3-0.7,1.8c-0.5,0.4-1,0.7-1.7,1c-0.7,0.2-1.4,0.4-2.3,0.5
					c-0.8,0.1-1.7,0.1-2.4,0.1c-0.8,0-1.4,0-2-0.1c-0.6,0-1-0.1-1.2-0.1v0.7c0,0.9,0.2,1.8,0.6,2.6c0.4,0.8,0.9,1.6,1.5,2.4
					c0.5,0.8,1,1.5,1.5,2.2c0.4,0.7,0.7,1.5,0.7,2.3c0,0.5-0.1,0.9-0.3,1.3c-0.2,0.3-0.6,0.5-1.1,0.5c-0.5,0-1.1-0.3-1.6-0.8
					c-0.5-0.6-1-1.3-1.5-2.3c-0.5-0.9-1-2-1.4-3.3c-0.4-1.2-0.9-2.5-1.3-3.9c-0.4-1.3-0.8-2.7-1.1-4c-0.3-1.3-0.6-2.5-0.8-3.7
					c-0.2-1.1-0.4-2.1-0.5-3c-0.1-0.9-0.2-1.5-0.2-1.9V41.3z"/>
			</g>
		</g>
	</g>
	<g>
		<g transform="translate(281.56443, 192.694924)">
			<g>
				<path class="st8" d="M96,38.4c-0.1,0-0.3,0-0.5-0.1c-0.2-0.1-0.4-0.1-0.6-0.2c-0.2-0.1-0.4-0.2-0.6-0.2
					c-0.2-0.1-0.3-0.1-0.4-0.2c0,0,0-0.1,0-0.1c0,0,0-0.1,0-0.2c0-0.3,0.1-0.6,0.4-0.8c0.2-0.2,0.5-0.4,0.8-0.5
					c0.3-0.1,0.6-0.2,0.9-0.3c0.3-0.1,0.5-0.1,0.7-0.2h0.7c0.5,0,1.2,0.1,2,0.2c0.8,0.1,1.7,0.2,2.6,0.3c0.9,0.1,1.8,0.2,2.7,0.3
					c0.9,0.1,1.8,0.2,2.5,0.3c0.8,0.1,1.4,0.2,1.9,0.2c0.5,0.1,0.8,0.1,0.9,0.1c0.2,0,0.4,0.1,0.7,0.1c0.3,0.1,0.6,0.1,0.8,0.3
					c0.3,0.1,0.6,0.3,0.8,0.4c0.2,0.2,0.4,0.4,0.5,0.6c-0.2,0.3-0.3,0.6-0.5,0.8c-0.1,0.2-0.3,0.3-0.4,0.4c-0.1,0.1-0.3,0.1-0.5,0.1
					c-0.2,0-0.4,0-0.6,0c-0.9,0-1.8,0-2.8-0.1c-0.9-0.1-1.8-0.1-2.8-0.2c-0.9-0.1-1.8-0.1-2.8-0.2c-0.9-0.1-1.8-0.1-2.8-0.1
					c0,0.4-0.1,1-0.1,1.8c-0.1,0.8-0.2,1.6-0.2,2.5c-0.1,0.9,0,1.7,0.1,2.6c0.1,0.8,0.3,1.6,0.8,2.2c0.8-0.5,1.5-0.7,2.4-0.7
					c0.8,0,1.7,0,2.5,0c0.4,0,0.8,0,1.4,0c0.6,0,1.1,0.1,1.6,0.2c0.5,0.1,1,0.3,1.3,0.6c0.4,0.3,0.6,0.8,0.6,1.4
					c0,0.4-0.1,0.8-0.3,1c-0.2,0.2-0.6,0.3-1.2,0.3c-0.1,0-0.2,0-0.4-0.1c-0.2-0.1-0.4-0.1-0.6-0.2c-0.2-0.1-0.4-0.2-0.6-0.2
					c-0.2-0.1-0.3-0.1-0.4-0.1c0,0-0.1,0-0.3,0c-0.1,0-0.3,0-0.5,0c-0.2,0-0.4,0-0.6,0c-0.2,0-0.3,0-0.4,0c-0.5,0-1,0-1.5,0.1
					c-0.5,0.1-0.9,0.2-1.2,0.4c-0.3,0.2-0.6,0.5-0.8,0.9c-0.2,0.4-0.3,0.8-0.3,1.4c0,0.2,0,0.5,0.1,1c0,0.5,0.1,1,0.2,1.6
					c0.1,0.6,0.2,1.2,0.3,1.8c0.1,0.6,0.3,1.2,0.5,1.7c0.2,0.5,0.5,0.9,0.7,1.3c0.3,0.3,0.6,0.5,1,0.5c0,0,0.1,0,0.3,0
					c0.2,0,0.3,0,0.4,0c0.7-0.5,1.5-1,2.2-1.6c0.8-0.6,1.5-1.1,2.3-1.6c0.8-0.5,1.6-0.9,2.5-1.3c0.9-0.4,1.8-0.5,2.7-0.5v1.6
					c0,0.1-0.2,0.3-0.6,0.7c-0.4,0.4-1,0.8-1.6,1.4c-0.7,0.5-1.4,1.1-2.3,1.6c-0.8,0.6-1.7,1.1-2.5,1.6c-0.8,0.5-1.7,0.9-2.4,1.2
					c-0.8,0.3-1.4,0.5-1.9,0.5c-0.7,0-1.4-0.3-2-1c-0.6-0.7-1.1-1.5-1.5-2.6c-0.5-1.1-0.8-2.4-1.1-3.8c-0.3-1.4-0.6-2.9-0.8-4.4
					c-0.2-1.5-0.4-3-0.6-4.5c-0.1-1.5-0.3-2.9-0.3-4.2c-0.1-1.3-0.1-2.4-0.2-3.4C96,39.4,96,38.8,96,38.4z"/>
			</g>
		</g>
	</g>
	<g>
		<g transform="translate(305.747785, 192.694924)">
			<g>
				<path class="st8" d="M101.9,41.3c0-0.2,0-0.5,0-0.9c0-0.4,0-0.8,0-1.3c0-0.5,0-0.9,0-1.3c0-0.4,0-0.7,0-0.8
					c0.2-0.5,0.6-0.8,1.1-1c0.5-0.2,1.1-0.3,1.7-0.4c0.6-0.1,1.2-0.1,1.8-0.1c0.6,0,1,0,1.4,0c0.5,0,1,0,1.7,0.1
					c0.7,0,1.3,0.1,1.9,0.3c0.6,0.1,1.3,0.3,1.9,0.5c0.6,0.2,1.2,0.5,1.7,0.9c0.5,0.3,0.9,0.8,1.2,1.3c0.3,0.5,0.4,1.1,0.4,1.8
					c0,0.8-0.2,1.6-0.6,2.2c-0.4,0.7-0.9,1.3-1.5,1.9c-0.6,0.6-1.2,1.1-1.9,1.6c-0.7,0.5-1.3,1-1.9,1.5c-0.6,0.5-1.1,1-1.5,1.5
					c-0.4,0.5-0.6,1-0.6,1.6c0,0,0,0.1,0,0.2c0,0.1,0.1,0.1,0.1,0.1c2.6,0.8,5,1.7,7.5,2.8c2.4,1.1,4.8,2.3,7.2,3.5
					c0.1,0,0.1,0.1,0.2,0.3c0.1,0.1,0.2,0.3,0.2,0.4c0.1,0.2,0.1,0.3,0.2,0.5c0.1,0.1,0.1,0.2,0.1,0.3c0,0.2-0.1,0.3-0.2,0.4
					c-0.1,0.1-0.2,0.2-0.4,0.2c-0.2,0.1-0.3,0.1-0.5,0.1c-0.1,0-0.3,0-0.4,0c-1.2,0-2.4-0.3-3.5-0.8c-1.2-0.5-2.3-1.1-3.5-1.7
					c-1.2-0.6-2.4-1.2-3.6-1.7c-1.2-0.5-2.4-0.8-3.8-0.8h-1c0.3,0.8,0.7,1.5,0.9,2.1c0.3,0.6,0.5,1.2,0.7,1.8
					c0.2,0.6,0.3,1.2,0.4,1.8c0.1,0.6,0.1,1.2,0.1,1.9c0,0.2,0,0.3,0,0.5c0,0.2,0,0.4,0,0.6c0,0.2-0.1,0.4-0.2,0.6
					c-0.1,0.2-0.3,0.3-0.5,0.4c-0.9-0.5-1.7-1.3-2.4-2.4c-0.7-1.1-1.3-2.3-1.9-3.8c-0.5-1.4-1-2.9-1.3-4.5c-0.3-1.6-0.6-3.2-0.9-4.7
					c-0.2-1.5-0.4-3-0.5-4.3C101.9,43.3,101.9,42.1,101.9,41.3z M104.6,43.3c0,0.3,0,0.7,0,1.1c0,0.4,0,0.9,0,1.4
					c0,0.5,0.1,0.9,0.2,1.3c0.1,0.4,0.3,0.8,0.6,1.1c0,0,0.1,0,0.1,0c0,0,0.1,0,0.2,0c0.4,0,0.9-0.1,1.4-0.4c0.6-0.3,1.1-0.6,1.8-1
					c0.6-0.4,1.2-0.8,1.8-1.3c0.6-0.5,1.1-1,1.6-1.6c0.5-0.5,0.9-1.1,1.1-1.6c0.3-0.6,0.4-1.1,0.4-1.5c0-0.4-0.2-0.8-0.5-1.1
					c-0.3-0.3-0.7-0.6-1.2-0.8c-0.5-0.2-0.9-0.4-1.4-0.4c-0.5-0.1-0.9-0.1-1.2-0.1c-0.4,0-0.8,0-1.3,0c-0.5,0-1,0-1.5,0.1
					c-0.5,0.1-0.9,0.2-1.3,0.4c-0.4,0.2-0.7,0.5-0.8,0.9c0,0.1,0,0.4,0,0.7c0,0.3,0,0.7,0,1s0,0.7,0,1.1
					C104.7,42.9,104.6,43.1,104.6,43.3z"/>
			</g>
		</g>
	</g>
	<g>
		<g transform="translate(330.956371, 192.694924)">
			<g>
				<path class="st8" d="M118,35.6c0.1-0.4,0.3-0.6,0.6-0.7c0.3-0.1,0.5-0.1,0.9-0.1c0.5,0,1,0.3,1.7,1c0.6,0.7,1.3,1.5,1.9,2.6
					c0.7,1.1,1.3,2.4,2,3.8c0.7,1.4,1.3,2.9,1.9,4.4c0.6,1.5,1.2,3.1,1.8,4.6c0.5,1.5,1,2.9,1.4,4.2c0.4,1.3,0.7,2.4,0.9,3.3
					c0.2,0.9,0.3,1.6,0.3,1.9c0,0.3-0.1,0.7-0.3,1c-0.2,0.3-0.5,0.5-0.9,0.5c-0.3,0-0.5-0.1-0.7-0.2c-0.2-0.2-0.3-0.4-0.5-0.6
					c-0.1-0.3-0.2-0.5-0.4-0.7c-0.1-0.2-0.2-0.4-0.3-0.6c-0.1-0.2-0.3-0.7-0.5-1.4c-0.3-0.7-0.6-1.4-0.9-2.1
					c-0.3-0.7-0.6-1.4-0.8-2.1c-0.3-0.7-0.4-1.1-0.5-1.4c-1.5-0.3-3-0.5-4.6-0.7c-1.5-0.2-3.1-0.5-4.8-0.7h-0.4
					c-0.8,3.4-1.5,6-2.1,8c-0.6,1.9-1.1,3.3-1.5,4.2c-0.4,0.8-0.7,1.2-1,1c-0.2-0.1-0.4-0.6-0.5-1.5c-0.1-0.9-0.1-2,0-3.4
					c0.1-1.4,0.3-3,0.6-4.7c0.3-1.7,0.6-3.5,1-5.4c0.4-1.9,0.9-3.7,1.4-5.5c0.6-1.8,1.2-3.4,1.9-4.9C116.5,37.9,117.2,36.6,118,35.6
					z M117.2,47.1c0,0.8,0.3,1.4,0.8,1.8c0.5,0.4,1.2,0.6,1.9,0.7c0.8,0.1,1.5,0.1,2.3,0.1c0.8,0,1.5,0,2.1,0c0-0.9-0.1-1.8-0.4-2.8
					c-0.3-1-0.6-2-1.1-3c-0.4-1-0.9-2-1.4-2.9c-0.5-0.9-0.9-1.8-1.3-2.6c-0.2,0.2-0.5,0.7-0.8,1.3c-0.3,0.6-0.5,1.4-0.8,2.1
					c-0.3,0.8-0.5,1.6-0.8,2.3c-0.2,0.8-0.4,1.4-0.5,1.9c0,0.1,0,0.2,0,0.5C117.2,46.9,117.2,47,117.2,47.1z"/>
			</g>
		</g>
	</g>
</g>
</svg>
